<svg width="90" height="24" viewBox="0 0 90 24" fill="none" xmlns="http://www.w3.org/2000/svg">
<path d="M0.56 1.2H12.704V3.96H3.824V8.208H12.008V10.92H3.824V15.24H12.704V18H0.56V1.2ZM22.5307 18L19.8907 14.352L17.2507 18H13.6747L18.1387 11.928L13.7947 6.048H17.3707L19.8907 9.552L22.4107 6.048H25.9867L21.6667 11.976L26.1067 18H22.5307ZM27.6744 6.048H30.6024V7.8L32.3544 6.048H37.0104L39.4824 8.544V15.504L37.0104 18H32.3784L30.8424 16.728V23.088H27.6744V6.048ZM35.4744 15.312L36.3144 14.472V9.576L35.4744 8.736H32.7624L30.8424 10.68V13.608L32.7384 15.312H35.4744ZM42.2319 0.863999H45.3999V18H42.2319V0.863999ZM48.1531 15.504V8.544L50.6251 6.048H57.4891L59.9611 8.544V15.504L57.4891 18H50.6251L48.1531 15.504ZM55.9531 15.36L56.7931 14.52V9.528L55.9531 8.688H52.1611L51.3211 9.528V14.52L52.1611 15.36H55.9531ZM62.5963 6.048H65.5243V8.04L67.4443 6.048H70.8523V8.736H68.0923L65.7643 11.136V18H62.5963V6.048ZM71.5672 15.552V8.544L74.0392 6.048H80.7832L83.2792 8.544V13.08H74.7352V14.616L75.5032 15.408H79.4152L80.1352 14.664V14.04H83.2552V15.6L80.8792 18H73.9912L71.5672 15.552ZM80.1112 10.872V9.48L79.2952 8.64H75.5512L74.7352 9.48V10.872H80.1112ZM86.0154 4.416V1.2H89.2794V4.416L88.8954 13.152H86.3994L86.0154 4.416ZM85.7994 16.968V15.528L86.8314 14.496H88.4634L89.4954 15.528V16.968L88.4634 18H86.8314L85.7994 16.968Z" fill="black"/>
</svg>
