<svg width="242" height="228" viewBox="0 0 242 228" fill="none" xmlns="http://www.w3.org/2000/svg">
<rect x="11.7617" y="8" width="216" height="216" rx="53" stroke="black" stroke-width="6"/>
<rect x="34.3153" y="36.8439" width="26" height="106" rx="13" transform="rotate(-47.8443 34.3153 36.8439)" stroke="black" stroke-width="6"/>
<path d="M61.1692 43.6197L53.0792 44.0216C48.6112 44.2436 44.8092 40.8015 44.5872 36.3335C44.3653 31.8655 47.8073 28.0635 52.2753 27.8416C56.7433 27.6196 60.5453 31.0617 60.7673 35.5296L61.1692 43.6197ZM63.2356 46.9212C64.063 46.8801 64.7004 46.176 64.6593 45.3486L64.1631 35.3609C63.8479 29.0175 58.4501 24.1306 52.1066 24.4458C45.7632 24.7609 40.8763 30.1588 41.1914 36.5022C41.5066 42.8457 46.9045 47.7326 53.2479 47.4174L63.2356 46.9212Z" fill="#FF6060" stroke="#FF6060" stroke-width="3" stroke-linejoin="round"/>
<rect x="59.6695" y="167.821" width="26" height="106" rx="13" transform="rotate(-137.844 59.6695 167.821)" stroke="black" stroke-width="6"/>
<path d="M65.9334 141.992L66.3354 150.082C66.5574 154.55 63.1153 158.352 58.6473 158.574C54.1793 158.796 50.3773 155.354 50.1553 150.886C49.9334 146.418 53.3754 142.616 57.8434 142.394L65.9334 141.992ZM69.235 139.926C69.1939 139.098 68.4898 138.461 67.6624 138.502L57.6747 138.998C51.3313 139.313 46.4444 144.711 46.7595 151.055C47.0747 157.398 52.4726 162.285 58.816 161.97C65.1595 161.655 70.0464 156.257 69.7312 149.913L69.235 139.926Z" fill="#706DFF" stroke="#706DFF" stroke-width="3" stroke-linejoin="round"/>
<rect x="208.222" y="190.924" width="26" height="106" rx="13" transform="rotate(132.156 208.222 190.924)" stroke="black" stroke-width="6"/>
<path d="M181.368 184.148L189.458 183.746C193.926 183.524 197.728 186.966 197.95 191.434C198.172 195.902 194.73 199.704 190.262 199.926C185.794 200.148 181.992 196.706 181.77 192.238L181.368 184.148ZM179.302 180.846C178.474 180.887 177.837 181.591 177.878 182.419L178.374 192.406C178.689 198.75 184.087 203.637 190.431 203.322C196.774 203.006 201.661 197.609 201.346 191.265C201.031 184.922 195.633 180.035 189.289 180.35L179.302 180.846Z" fill="#FF6060" stroke="#FF6060" stroke-width="3" stroke-linejoin="round"/>
<rect x="182.868" y="59.9468" width="26" height="106" rx="13" transform="rotate(42.1557 182.868 59.9468)" stroke="black" stroke-width="6"/>
<path d="M176.092 86.8008L175.69 78.7108C175.468 74.2428 178.91 70.4408 183.378 70.2189C187.846 69.9969 191.648 73.4389 191.87 77.9069C192.092 82.3749 188.65 86.1769 184.182 86.3989L176.092 86.8008ZM172.79 88.8672C172.832 89.6946 173.536 90.332 174.363 90.2909L184.351 89.7947C190.694 89.4796 195.581 84.0817 195.266 77.7382C194.951 71.3948 189.553 66.5079 183.209 66.823C176.866 67.1382 171.979 72.5361 172.294 78.8795L172.79 88.8672Z" fill="#706DFF" stroke="#706DFF" stroke-width="3" stroke-linejoin="round"/>
</svg>
