<svg viewBox="0 0 243 228" fill="none" xmlns="http://www.w3.org/2000/svg">
<rect x="12" y="8" width="216" height="216" rx="53" stroke="black" stroke-width="6"/>
<rect x="34.5536" y="36.8439" width="26" height="106" rx="13" transform="rotate(-47.8443 34.5536 36.8439)" stroke="black" stroke-width="6"/>
<path d="M61.4075 43.6197L53.3175 44.0216C48.8495 44.2436 45.0475 40.8015 44.8255 36.3335C44.6035 31.8655 48.0456 28.0635 52.5136 27.8416C56.9816 27.6196 60.7836 31.0617 61.0056 35.5296L61.4075 43.6197ZM63.4739 46.9212C64.3013 46.8801 64.9387 46.176 64.8976 45.3486L64.4014 35.3609C64.0862 29.0175 58.6883 24.1306 52.3449 24.4458C46.0014 24.7609 41.1145 30.1588 41.4297 36.5022C41.7449 42.8457 47.1427 47.7326 53.4862 47.4174L63.4739 46.9212Z" fill="#FF0202" stroke="#FF0202" stroke-width="3" stroke-linejoin="round"/>
<rect x="59.9078" y="167.821" width="26" height="106" rx="13" transform="rotate(-137.844 59.9078 167.821)" stroke="black" stroke-width="6"/>
<path d="M66.1717 141.992L66.5737 150.082C66.7957 154.55 63.3536 158.352 58.8856 158.574C54.4176 158.796 50.6156 155.354 50.3936 150.886C50.1716 146.418 53.6137 142.616 58.0817 142.394L66.1717 141.992ZM69.4733 139.926C69.4322 139.098 68.7281 138.461 67.9007 138.502L57.913 138.998C51.5695 139.313 46.6827 144.711 46.9978 151.055C47.313 157.398 52.7109 162.285 59.0543 161.97C65.3978 161.655 70.2846 156.257 69.9695 149.913L69.4733 139.926Z" fill="#FF0202" stroke="#FF0202" stroke-width="3" stroke-linejoin="round"/>
<rect x="208.46" y="190.924" width="26" height="106" rx="13" transform="rotate(132.156 208.46 190.924)" stroke="black" stroke-width="6"/>
<path d="M181.606 184.148L189.696 183.746C194.164 183.524 197.966 186.966 198.188 191.434C198.41 195.902 194.968 199.704 190.5 199.926C186.032 200.148 182.23 196.706 182.008 192.238L181.606 184.148ZM179.54 180.846C178.712 180.887 178.075 181.591 178.116 182.419L178.612 192.406C178.927 198.75 184.325 203.637 190.669 203.322C197.012 203.006 201.899 197.609 201.584 191.265C201.269 184.922 195.871 180.035 189.527 180.35L179.54 180.846Z" fill="#FF0202" stroke="#FF0202" stroke-width="3" stroke-linejoin="round"/>
<rect x="183.106" y="59.9468" width="26" height="106" rx="13" transform="rotate(42.1557 183.106 59.9468)" stroke="black" stroke-width="6"/>
<path d="M176.33 86.8008L175.928 78.7108C175.706 74.2428 179.148 70.4408 183.616 70.2189C188.084 69.9969 191.886 73.4389 192.108 77.9069C192.33 82.3749 188.888 86.1769 184.42 86.3989L176.33 86.8008ZM173.029 88.8672C173.07 89.6946 173.774 90.332 174.601 90.2909L184.589 89.7947C190.932 89.4796 195.819 84.0817 195.504 77.7382C195.189 71.3948 189.791 66.5079 183.448 66.823C177.104 67.1382 172.217 72.5361 172.532 78.8795L173.029 88.8672Z" fill="#FF0202" stroke="#FF0202" stroke-width="3" stroke-linejoin="round"/>
</svg>
