<svg width="111" height="17" viewBox="0 0 111 17" fill="none" xmlns="http://www.w3.org/2000/svg">
<path d="M0.2 14.408V12.008H3.416V13.424L4.208 14.216H9.176L9.992 13.4V10.616L9.2 9.824H2.84L0.248 7.232V2.792L2.84 0.199999H10.424L13.016 2.792V5.216H9.8V3.776L9.008 2.984H4.256L3.464 3.776V6.248L4.256 7.04H10.616L13.208 9.632V14.36L10.568 17H2.792L0.2 14.408ZM15.3641 14.552V7.544L17.8361 5.048H24.5801L27.0761 7.544V12.08H18.5321V13.616L19.3001 14.408H23.2121L23.9321 13.664V13.04H27.0521V14.6L24.6761 17H17.7881L15.3641 14.552ZM23.9081 9.872V8.48L23.0921 7.64H19.3481L18.5321 8.48V9.872H23.9081ZM29.3563 14.552V7.544L31.8283 5.048H38.5723L41.0683 7.544V12.08H32.5243V13.616L33.2923 14.408H37.2043L37.9243 13.664V13.04H41.0443V14.6L38.6683 17H31.7803L29.3563 14.552ZM37.9003 9.872V8.48L37.0843 7.64H33.3403L32.5243 8.48V9.872H37.9003ZM50.2475 0.199999H53.2715L58.2635 11.048H58.3115L63.3275 0.199999H66.3515V17H63.2075V6.776H63.1595L59.2955 14.648H57.2795L53.4395 6.776H53.3915V17H50.2475V0.199999ZM69.1063 14.504V7.544L71.5783 5.048H78.4423L80.9143 7.544V14.504L78.4423 17H71.5783L69.1063 14.504ZM76.9063 14.36L77.7463 13.52V8.528L76.9063 7.688H73.1143L72.2743 8.528V13.52L73.1143 14.36H76.9063ZM83.5494 5.048H86.4774V7.04L88.3974 5.048H91.8054V7.736H89.0454L86.7174 10.136V17H83.5494V5.048ZM92.5203 14.552V7.544L94.9923 5.048H101.736L104.232 7.544V12.08H95.6883V13.616L96.4563 14.408H100.368L101.088 13.664V13.04H104.208V14.6L101.832 17H94.9443L92.5203 14.552ZM101.064 9.872V8.48L100.248 7.64H96.5043L95.6883 8.48V9.872H101.064ZM106.969 3.416V0.199999H110.233V3.416L109.849 12.152H107.353L106.969 3.416ZM106.753 15.968V14.528L107.785 13.496H109.417L110.449 14.528V15.968L109.417 17H107.785L106.753 15.968Z" fill="black"/>
</svg>
